<?xml version="1.0" encoding="UTF-8" standalone="no"?>
<!-- Created with Inkscape (http://www.inkscape.org/) -->

<svg
   version="1.1"
   id="svg1"
   width="393.28"
   height="115.2"
   viewBox="0 0 393.28 115.2"
   sodipodi:docname="Epower_Karlis10E.svg"
   xml:space="preserve"
   inkscape:version="1.3.2 (091e20e, 2023-11-25, custom)"
   xmlns:inkscape="http://www.inkscape.org/namespaces/inkscape"
   xmlns:sodipodi="http://sodipodi.sourceforge.net/DTD/sodipodi-0.dtd"
   xmlns="http://www.w3.org/2000/svg"
   xmlns:svg="http://www.w3.org/2000/svg"><defs
     id="defs1"><rect
       x="63.229518"
       y="7.9284663"
       width="160.15502"
       height="22.596129"
       id="rect24" /></defs><sodipodi:namedview
     id="namedview1"
     pagecolor="#ffffff"
     bordercolor="#000000"
     borderopacity="0.25"
     inkscape:showpageshadow="2"
     inkscape:pageopacity="0.0"
     inkscape:pagecheckerboard="0"
     inkscape:deskcolor="#d1d1d1"
     inkscape:zoom="2.522556"
     inkscape:cx="178.5887"
     inkscape:cy="108.42178"
     inkscape:window-width="1920"
     inkscape:window-height="1017"
     inkscape:window-x="-8"
     inkscape:window-y="-8"
     inkscape:window-maximized="1"
     inkscape:current-layer="g1" /><g
     inkscape:groupmode="layer"
     inkscape:label="Image"
     id="g1"><path
       style="opacity:1;fill:#acacac;fill-opacity:0;stroke:#fc4545;stroke-width:3;stroke-linecap:round;stroke-linejoin:bevel;stroke-dasharray:none;stroke-opacity:1;paint-order:markers stroke fill"
       id="path12"
       sodipodi:type="arc"
       sodipodi:cx="82.986183"
       sodipodi:cy="81.581047"
       sodipodi:rx="48.395954"
       sodipodi:ry="9.3550844"
       sodipodi:start="5.6506702"
       sodipodi:end="3.8036757"
       sodipodi:arc-type="arc"
       d="M 122.01961,76.050553 A 48.395954,9.3550844 0 0 1 115.06408,88.58592 48.395954,9.3550844 0 0 1 49.850986,88.399541 48.395954,9.3550844 0 0 1 44.815647,75.829905"
       sodipodi:open="true" /><path
       style="opacity:1;fill:#acacac;fill-opacity:0;stroke:#a7a794;stroke-width:5;stroke-linecap:round;stroke-linejoin:bevel;stroke-dasharray:none;stroke-opacity:1;paint-order:markers stroke fill"
       id="path11"
       sodipodi:type="arc"
       sodipodi:cx="83.352119"
       sodipodi:cy="81.991356"
       sodipodi:rx="67.331947"
       sodipodi:ry="21.910591"
       sodipodi:start="5.4241126"
       sodipodi:end="3.9714347"
       sodipodi:open="true"
       sodipodi:arc-type="arc"
       d="M 127.3293,65.39984 A 67.331947,21.910591 0 0 1 146.63523,89.474683 67.331947,21.910591 0 0 1 84.336163,103.89961 67.331947,21.910591 0 0 1 20.768151,90.073349 67.331947,21.910591 0 0 1 37.903573,65.825179" /><path
       style="opacity:1;fill:#acacac;fill-opacity:0;stroke:#f6f61a;stroke-width:4;stroke-linecap:round;stroke-linejoin:bevel;stroke-dasharray:none;stroke-opacity:1;paint-order:markers stroke fill"
       id="path3"
       sodipodi:type="arc"
       sodipodi:cx="83.169151"
       sodipodi:cy="81.581047"
       sodipodi:rx="59.030258"
       sodipodi:ry="15.591807"
       sodipodi:start="5.4996689"
       sodipodi:end="3.867408"
       sodipodi:open="true"
       sodipodi:arc-type="arc"
       d="m 124.98832,70.57674 a 59.030258,15.591807 0 0 1 0.6909,21.822346 59.030258,15.591807 0 0 1 -82.587449,0.629521 59.030258,15.591807 0 0 1 -4.074802,-21.796552" /><g
       id="g3"
       transform="matrix(0.92309031,0,0,0.82802544,-129.49117,-2.5366289)"
       style="opacity:1;fill:#84d88e;fill-opacity:1;fill-rule:nonzero;stroke:#2dd12e;stroke-width:5.60012;stroke-dasharray:none;stroke-opacity:1"
       inkscape:transform-center-x="-3.0604782"
       inkscape:transform-center-y="-1.338352"><path
         id="path1"
         style="opacity:1;fill:#84d88e;fill-opacity:1;fill-rule:nonzero;stroke:#2dd12e;stroke-width:5.60012;stroke-linecap:square;stroke-linejoin:bevel;stroke-dasharray:none;stroke-opacity:1;paint-order:markers stroke fill"
         d="m 269.0571,75.858838 c -11.43267,52.957862 -97.62219,26.208952 -77.68913,-17.343019 5.52328,-12.067904 8.63292,13.413219 15.66268,4.026276 1.65678,-2.212328 -0.0827,-11.243132 4.71023,-17.288179 7.62727,-9.61995 9.22135,-12.503384 9.02349,-15.728826 -0.54717,-8.919918 -6.10378,-15.648527 -0.53407,-10.916536 11.8778,10.09129 16.11175,10.509026 16.99573,19.857663 0.53949,5.705497 -6.05046,14.63423 1.13181,19.387775 12.0749,7.991696 22.56212,-10.687282 22.32268,-8.077039 -0.2655,2.894277 5.32621,8.228981 6.48076,11.690773 2.46298,7.384984 2.70705,10.633392 1.89582,14.391112 z"
         sodipodi:nodetypes="sssssssssss" /><path
         id="path2"
         style="opacity:1;fill:#84d88e;fill-opacity:1;fill-rule:nonzero;stroke:#2dd12e;stroke-width:5.60012;stroke-linecap:square;stroke-linejoin:bevel;stroke-dasharray:none;stroke-opacity:1;paint-order:markers stroke fill"
         d="m 244.71379,87.38777 c -5.43274,33.44589 -43.34434,9.859708 -30.78755,-6.335241 1.5727,-2.028365 3.88295,8.303888 8.27937,4.366863 5.46887,-4.897412 1.81328,-17.504977 3.44685,-16.742555 8.46179,3.949306 20.69334,8.663667 19.06133,18.710933 z"
         sodipodi:nodetypes="sssss" /><g
         id="g2"
         transform="translate(2.180328,1.18927)"
         style="fill:#84d88e;fill-opacity:1;fill-rule:nonzero;stroke:#2dd12e;stroke-width:5.60012;stroke-dasharray:none;stroke-opacity:1" /></g><text
       xml:space="preserve"
       id="text24"
       style="font-style:normal;font-variant:normal;font-weight:normal;font-stretch:normal;line-height:1.1;font-family:Magneto;-inkscape-font-specification:Magneto;white-space:pre;shape-inside:url(#rect24);display:inline;opacity:1;fill:#4e4fcc;fill-opacity:1;stroke:#4cd74c;stroke-width:0.957743;stroke-linecap:round;stroke-linejoin:round;stroke-dasharray:none;stroke-opacity:1;paint-order:markers stroke fill"
       transform="matrix(2.0627936,0,0,2.0282215,-111.57165,-8.0512358)"><tspan
         x="63.230469"
         y="18.096094"
         id="tspan1">EPOWER</tspan></text></g></svg>
